<?xml version="1.0" encoding="utf-8"?>
<!-- Generator: Adobe Illustrator 19.0.0, SVG Export Plug-In . SVG Version: 6.00 Build 0)  -->
<svg version="1.1" id="Layer_1" xmlns="http://www.w3.org/2000/svg" xmlns:xlink="http://www.w3.org/1999/xlink" x="0px" y="0px"
	 viewBox="0 0 1400 980" style="enable-background:new 0 0 1400 980;" xml:space="preserve">
<style type="text/css">
	.st0{fill:#FFFFFF;}
	.st1{fill:#E21F26;}
	.st2{font-family:'PaytoneOne-Regular';}
	.st3{font-size:103.7247px;}
	.st4{clip-path:url(#XMLID_161_);fill:#EFEDEA;}
	.st5{clip-path:url(#XMLID_161_);}
	.st6{fill:#292663;}
	.st7{clip-path:url(#XMLID_285_);fill:#E21F26;}
	.st8{clip-path:url(#XMLID_285_);fill:#FFFFFF;}
	.st9{clip-path:url(#XMLID_161_);fill:#292663;}
	.st10{clip-path:url(#XMLID_161_);fill:none;stroke:#292663;stroke-width:10;stroke-miterlimit:10;}
	.st11{clip-path:url(#XMLID_497_);fill:#292663;}
	.st12{clip-path:url(#XMLID_497_);}
	.st13{clip-path:url(#XMLID_497_);fill:#FFFFFF;}
	.st14{clip-path:url(#XMLID_498_);fill:#292663;}
	.st15{clip-path:url(#XMLID_498_);}
	.st16{clip-path:url(#XMLID_499_);fill:#292663;}
	.st17{clip-path:url(#XMLID_499_);}
	.st18{clip-path:url(#XMLID_161_);fill:#E21F26;}
	.st19{clip-path:url(#XMLID_500_);fill:#E21F26;}
	.st20{clip-path:url(#XMLID_500_);fill:#FFFFFF;}
	.st21{clip-path:url(#XMLID_161_);fill:#FFFFFF;}
</style>
<rect id="XMLID_5_" class="st0" width="1400" height="980"/>
<g id="XMLID_140_">
	<text id="XMLID_508_" transform="matrix(1 0 0 1 488.5402 157.2924)" class="st1 st2 st3">LONDON</text>
</g>
<g id="XMLID_368_">
	<defs>
		<rect id="XMLID_343_" width="1400" height="980"/>
	</defs>
	<clipPath id="XMLID_161_">
		<use xlink:href="#XMLID_343_"  style="overflow:visible;"/>
	</clipPath>
	<path id="XMLID_2_" class="st4" d="M605.1,891.4c0,0,417.4-354.8,518.2-410.3s276.7,129,276.7,129v281.5L605.1,891.4z"/>
	<path id="XMLID_3_" class="st4" d="M47.1,891.4h807c0,0-273-316.5-397.1-313.6C327.7,580.8,47.1,891.4,47.1,891.4z"/>
	<g id="XMLID_327_" class="st5">
		<g id="XMLID_324_">
			<path id="XMLID_359_" class="st6" d="M1235.7,812.9c-69.5,0-126.1-56.6-126.1-126.1s56.6-126.1,126.1-126.1
				s126.1,56.6,126.1,126.1S1305.2,812.9,1235.7,812.9z M1235.7,571c-63.9,0-115.8,52-115.8,115.8s52,115.8,115.8,115.8
				c63.9,0,115.8-52,115.8-115.8S1299.5,571,1235.7,571z"/>
		</g>
		<g id="XMLID_328_">
			<path id="XMLID_356_" class="st6" d="M1235.7,785.4c-54.3,0-98.5-44.2-98.5-98.5s44.2-98.5,98.5-98.5s98.5,44.2,98.5,98.5
				S1290,785.4,1235.7,785.4z M1235.7,594.8c-50.8,0-92.1,41.3-92.1,92.1s41.3,92.1,92.1,92.1s92.1-41.3,92.1-92.1
				S1286.4,594.8,1235.7,594.8z"/>
		</g>
		<g id="XMLID_329_">
			<rect id="XMLID_355_" x="1232.4" y="565.9" class="st6" width="6.4" height="241.9"/>
		</g>
		<g id="XMLID_330_">
			<rect id="XMLID_354_" x="1114.7" y="686.8" class="st6" width="241.9" height="6.4"/>
		</g>
		<g id="XMLID_332_">
			
				<rect id="XMLID_353_" x="1114.7" y="686.8" transform="matrix(0.7071 0.7071 -0.7071 0.7071 849.813 -671.6461)" class="st6" width="241.9" height="6.4"/>
		</g>
		<g id="XMLID_335_">
			
				<rect id="XMLID_352_" x="1232.4" y="569" transform="matrix(0.7071 0.7072 -0.7072 0.7071 849.9095 -671.6735)" class="st6" width="6.4" height="241.9"/>
		</g>
		<g id="XMLID_337_">
			
				<rect id="XMLID_351_" x="1232.4" y="569" transform="matrix(0.9239 0.3827 -0.3827 0.9239 358.1624 -420.3856)" class="st6" width="6.4" height="241.9"/>
		</g>
		<g id="XMLID_340_">
			
				<rect id="XMLID_350_" x="1232.4" y="569" transform="matrix(0.3826 0.9239 -0.9239 0.3826 1400.3745 -715.6403)" class="st6" width="6.4" height="241.9"/>
		</g>
		<g id="XMLID_338_">
			
				<rect id="XMLID_349_" x="1114.7" y="686.8" transform="matrix(0.3827 0.9239 -0.9239 0.3827 1400.265 -715.6531)" class="st6" width="241.9" height="6.4"/>
		</g>
		<g id="XMLID_339_">
			
				<rect id="XMLID_348_" x="1114.7" y="686.8" transform="matrix(0.9239 0.3827 -0.3827 0.9239 358.1073 -420.342)" class="st6" width="241.9" height="6.4"/>
		</g>
		<path id="XMLID_342_" class="st1" d="M1240.6,572.5h-10c-6.5,0-11.7-5.3-11.7-11.7v0c0-6.5,5.3-11.7,11.7-11.7h10
			c6.5,0,11.7,5.3,11.7,11.7v0C1252.4,567.2,1247.1,572.5,1240.6,572.5z"/>
		<path id="XMLID_341_" class="st1" d="M1240.6,823.8h-10c-6.5,0-11.7-5.3-11.7-11.7l0,0c0-6.5,5.3-11.7,11.7-11.7h10
			c6.5,0,11.7,5.3,11.7,11.7l0,0C1252.4,818.5,1247.1,823.8,1240.6,823.8z"/>
		<path id="XMLID_345_" class="st1" d="M1368.6,701.7h-10c-6.5,0-11.7-5.3-11.7-11.7l0,0c0-6.5,5.3-11.7,11.7-11.7h10
			c6.5,0,11.7,5.3,11.7,11.7l0,0C1380.3,696.4,1375,701.7,1368.6,701.7z"/>
		<path id="XMLID_367_" class="st1" d="M1361.6,654.8h-10c-6.5,0-11.7-5.3-11.7-11.7l0,0c0-6.5,5.3-11.7,11.7-11.7h10
			c6.5,0,11.7,5.3,11.7,11.7l0,0C1373.3,649.5,1368,654.8,1361.6,654.8z"/>
		<path id="XMLID_370_" class="st1" d="M1335.2,612.4h-10c-6.5,0-11.7-5.3-11.7-11.7l0,0c0-6.5,5.3-11.7,11.7-11.7h10
			c6.5,0,11.7,5.3,11.7,11.7l0,0C1346.9,607.1,1341.6,612.4,1335.2,612.4z"/>
		<path id="XMLID_373_" class="st1" d="M1288.8,584.2h-10c-6.5,0-11.7-5.3-11.7-11.7v0c0-6.5,5.3-11.7,11.7-11.7h10
			c6.5,0,11.7,5.3,11.7,11.7v0C1300.5,578.9,1295.2,584.2,1288.8,584.2z"/>
		<path id="XMLID_382_" class="st1" d="M1109,653.9h10c6.5,0,11.7-5.3,11.7-11.7l0,0c0-6.5-5.3-11.7-11.7-11.7h-10
			c-6.5,0-11.7,5.3-11.7,11.7l0,0C1097.3,648.6,1102.6,653.9,1109,653.9z"/>
		<path id="XMLID_379_" class="st1" d="M1135.4,611.5h10c6.5,0,11.7-5.3,11.7-11.7v0c0-6.5-5.3-11.7-11.7-11.7h-10
			c-6.5,0-11.7,5.3-11.7,11.7v0C1123.7,606.2,1129,611.5,1135.4,611.5z"/>
		<path id="XMLID_376_" class="st1" d="M1181.9,583.2h10c6.5,0,11.7-5.3,11.7-11.7l0,0c0-6.5-5.3-11.7-11.7-11.7h-10
			c-6.5,0-11.7,5.3-11.7,11.7l0,0C1170.1,578,1175.4,583.2,1181.9,583.2z"/>
		<path id="XMLID_400_" class="st1" d="M1361.9,723.3h-10c-6.5,0-11.7,5.3-11.7,11.7v0c0,6.5,5.3,11.7,11.7,11.7h10
			c6.5,0,11.7-5.3,11.7-11.7v0C1373.7,728.5,1368.4,723.3,1361.9,723.3z"/>
		<path id="XMLID_397_" class="st1" d="M1335.5,765.7h-10c-6.5,0-11.7,5.3-11.7,11.7l0,0c0,6.5,5.3,11.7,11.7,11.7h10
			c6.5,0,11.7-5.3,11.7-11.7l0,0C1347.2,770.9,1342,765.7,1335.5,765.7z"/>
		<path id="XMLID_394_" class="st1" d="M1289.1,793.9h-10c-6.5,0-11.7,5.3-11.7,11.7l0,0c0,6.5,5.3,11.7,11.7,11.7h10
			c6.5,0,11.7-5.3,11.7-11.7l0,0C1300.8,799.2,1295.6,793.9,1289.1,793.9z"/>
		<path id="XMLID_385_" class="st1" d="M1109.4,724.2h10c6.5,0,11.7,5.3,11.7,11.7l0,0c0,6.5-5.3,11.7-11.7,11.7h-10
			c-6.5,0-11.7-5.3-11.7-11.7l0,0C1097.6,729.5,1102.9,724.2,1109.4,724.2z"/>
		<path id="XMLID_381_" class="st1" d="M1135.8,766.6h10c6.5,0,11.7,5.3,11.7,11.7v0c0,6.5-5.3,11.7-11.7,11.7h-10
			c-6.5,0-11.7-5.3-11.7-11.7v0C1124.1,771.9,1129.3,766.6,1135.8,766.6z"/>
		<path id="XMLID_377_" class="st1" d="M1182.2,794.8h10c6.5,0,11.7,5.3,11.7,11.7v0c0,6.5-5.3,11.7-11.7,11.7h-10
			c-6.5,0-11.7-5.3-11.7-11.7v0C1170.5,800.1,1175.8,794.8,1182.2,794.8z"/>
		<path id="XMLID_362_" class="st1" d="M1112.5,701.7h-10c-6.5,0-11.7-5.3-11.7-11.7l0,0c0-6.5,5.3-11.7,11.7-11.7h10
			c6.5,0,11.7,5.3,11.7,11.7l0,0C1124.3,696.4,1119,701.7,1112.5,701.7z"/>
	</g>
	<g id="XMLID_212_" class="st5">
		<defs>
			<polygon id="XMLID_219_" points="276.6,891.7 276.6,445.1 260.9,451.7 169.8,891.5 			"/>
		</defs>
		<clipPath id="XMLID_285_">
			<use xlink:href="#XMLID_219_"  style="overflow:visible;"/>
		</clipPath>
		<polygon id="XMLID_293_" class="st7" points="276.6,891.7 276.6,445.1 260.9,451.7 169.8,891.5 		"/>
		<rect id="XMLID_292_" x="248.7" y="483.5" class="st8" width="36.9" height="6.5"/>
		<rect id="XMLID_291_" x="223.2" y="516" class="st8" width="59.9" height="6.5"/>
		<rect id="XMLID_290_" x="223.2" y="547.4" class="st8" width="59.9" height="6.5"/>
		<rect id="XMLID_289_" x="223.2" y="579.1" class="st8" width="59.9" height="6.5"/>
		<rect id="XMLID_287_" x="223.2" y="610.5" class="st8" width="59.9" height="6.5"/>
		<rect id="XMLID_227_" x="189.9" y="643.8" class="st8" width="93.3" height="6.5"/>
		<rect id="XMLID_226_" x="189.9" y="675.2" class="st8" width="93.3" height="6.5"/>
		<rect id="XMLID_225_" x="183.3" y="769" class="st8" width="93.3" height="6.5"/>
		<rect id="XMLID_224_" x="183.3" y="800.4" class="st8" width="93.3" height="6.5"/>
		<rect id="XMLID_223_" x="165.9" y="832.1" class="st8" width="110.7" height="6.5"/>
		<rect id="XMLID_222_" x="165.9" y="863.5" class="st8" width="110.7" height="6.5"/>
		<rect id="XMLID_221_" x="189.9" y="706.9" class="st8" width="93.3" height="6.5"/>
		<rect id="XMLID_220_" x="189.9" y="738.3" class="st8" width="93.3" height="6.5"/>
	</g>
	<polygon id="XMLID_286_" class="st9" points="281.1,459.7 268.2,471.2 217.8,891.7 281.1,891.7 	"/>
	<g id="XMLID_243_" class="st5">
		<path id="XMLID_260_" class="st6" d="M341.5,781.5l-2.7-9.6c57.1-15.8,99.7-52.7,125.3-80.8c27.8-30.5,42.1-57.5,42.3-57.7
			l8.8,4.7c-0.6,1.1-15.1,28.4-43.7,59.8C445.1,726.9,401,765.1,341.5,781.5z"/>
	</g>
	<g id="XMLID_68_" class="st5">
		<rect id="XMLID_259_" x="361.4" y="770.2" class="st6" width="10" height="71.9"/>
	</g>
	<g id="XMLID_64_" class="st5">
		<rect id="XMLID_258_" x="397.2" y="748.3" class="st6" width="10" height="96"/>
	</g>
	<g id="XMLID_54_" class="st5">
		<rect id="XMLID_257_" x="432.7" y="724.7" class="st6" width="10" height="117.4"/>
	</g>
	<line id="XMLID_53_" class="st10" x1="473.6" y1="687.7" x2="473.6" y2="844.3"/>
	<g id="XMLID_48_" class="st5">
		<path id="XMLID_249_" class="st6" d="M1106.8,782.6c-59.4-16.5-103.5-54.6-130-83.7c-28.7-31.5-43.1-58.7-43.7-59.8l8.8-4.7
			l-4.4,2.3l4.4-2.3c0.1,0.3,14.6,27.4,42.5,58c25.6,28,68,64.8,125.1,80.6L1106.8,782.6z"/>
	</g>
	<rect id="XMLID_143_" x="340.2" y="835.6" class="st9" width="767.9" height="15.2"/>
	<g id="XMLID_4_" class="st5">
		<defs>
			<path id="XMLID_30_" d="M198.9,703.8c-11.3-104.4-50.5-220.4-80.6-258.7c-8.5-10.8-24.9-10.8-33.4,0
				C54.7,483.5,15.5,599.4,4.2,703.8C-9.3,829.1-1.2,891.7-1.2,891.7h102.7h102.7C204.3,891.7,212.4,829.1,198.9,703.8z"/>
		</defs>
		<clipPath id="XMLID_497_">
			<use xlink:href="#XMLID_30_"  style="overflow:visible;"/>
		</clipPath>
		<path id="XMLID_7_" class="st11" d="M198.9,703.8c-11.3-104.4-50.5-220.4-80.6-258.7c-8.5-10.8-24.9-10.8-33.4,0
			C54.7,483.5,15.5,599.4,4.2,703.8C-9.3,829.1-1.2,891.7-1.2,891.7h102.7h102.7C204.3,891.7,212.4,829.1,198.9,703.8z"/>
		<g id="XMLID_1_" class="st12">
			<g id="XMLID_69_">
				<path id="XMLID_70_" class="st1" d="M148.7,894.8c-0.3-0.5-31.3-50-82.6-139.3c-51.5-89.8-52.7-136-52.8-137.9l4.5-0.1l-2.3,0
					l2.3,0c0,0.5,1.3,47.2,52.2,135.7c51.2,89.2,82.2,138.6,82.5,139.1L148.7,894.8z"/>
			</g>
		</g>
		<g id="XMLID_6_" class="st12">
			<g id="XMLID_104_">
				<path id="XMLID_105_" class="st1" d="M112.2,895.2c-0.5-0.8-53.4-80.7-78.9-136.4c-25.5-56-27.7-99.2-27.8-99.6l4.5-0.2
					c0,0.4,2.2,42.8,27.3,97.9c25.3,55.4,78,135,78.5,135.8L112.2,895.2z"/>
			</g>
		</g>
		<g id="XMLID_9_" class="st12">
			<g id="XMLID_108_">
				<path id="XMLID_109_" class="st1" d="M38.7,895.7C4.7,831.9-5.1,765.6-5.2,765l4.5-0.6c0.1,0.7,9.8,66.2,43.4,129.3L38.7,895.7z
					"/>
			</g>
		</g>
		<g id="XMLID_10_" class="st12">
			<g id="XMLID_115_">
				<path id="XMLID_116_" class="st1" d="M12.8,895.9C-1.1,860-8,819.4-8.1,819l4.5-0.8c0.1,0.4,7,40.5,20.7,75.9L12.8,895.9z"/>
			</g>
		</g>
		<g id="XMLID_13_" class="st12">
			<g id="XMLID_118_">
				<path id="XMLID_119_" class="st1" d="M199.9,894.5c-10-39.6-38.6-102.9-59.3-138.7c-6.9-11.9-13.3-22.8-20.1-34.4
					c-13.4-22.7-27.3-46.2-47.3-81.9c-34.6-61.8-31.6-117.2-31.5-117.7l4.5,0.3c0,0.5-3,54.7,31,115.2c20,35.7,33.8,59.1,47.2,81.8
					c6.8,11.5,13.3,22.4,20.2,34.4c20.9,36.1,49.7,99.8,59.8,139.9L199.9,894.5z"/>
			</g>
		</g>
		<g id="XMLID_14_" class="st12">
			<g id="XMLID_177_">
				<path id="XMLID_180_" class="st1" d="M206.4,853.8c-15.8-67.7-52.7-132.9-67.8-157.8c-2.8-4.6-5.5-9.1-8.2-13.5
					c-14.8-24.3-28.9-47.2-45.7-82C49.8,528.4,57.8,484,58.2,482.2l4.4,0.9l-2.2-0.4l2.2,0.4c-0.1,0.4-8.1,44.8,26.1,115.5
					c16.7,34.6,30.1,56.4,45.5,81.6c2.7,4.4,5.4,8.9,8.2,13.5c15.2,25.1,52.3,90.8,68.3,159.2L206.4,853.8z"/>
			</g>
		</g>
		<g id="XMLID_11_" class="st12">
			<g id="XMLID_206_">
				<path id="XMLID_207_" class="st1" d="M203.4,760.9c-11.3-49-33.7-115.7-58-154.2c-34.5-54.8-49.6-96.4-56.2-121.7
					c-7.2-27.6-6.2-42-6.1-42.6l4.5,0.4l-2.3-0.2l2.3,0.2c0,0.1-1,14.5,6.1,41.5c6.5,24.9,21.5,66,55.6,120.1
					c24.6,39,47.1,106.3,58.5,155.6L203.4,760.9z"/>
			</g>
		</g>
		<g id="XMLID_15_" class="st12">
			<g id="XMLID_250_">
				<path id="XMLID_251_" class="st1" d="M198.8,693.3c-4-15.2-22.4-66.9-34.7-88.9C93.3,477.2,91.5,436.9,91.5,435.3l4.5-0.1
					c0,0.4,2.1,41.4,72.1,167c12.4,22.3,31.1,74.6,35.1,90L198.8,693.3z"/>
			</g>
		</g>
		<path id="XMLID_8_" class="st13" d="M164.6,546.4H38.5c-1.1,0-2-0.9-2-2v-0.1c0-1.1,0.9-2,2-2h126.2c1.1,0,2,0.9,2,2v0.1
			C166.7,545.5,165.8,546.4,164.6,546.4z"/>
		<path id="XMLID_12_" class="st13" d="M164.6,533.4H38.5c-1.1,0-2-0.9-2-2v-0.1c0-1.1,0.9-2,2-2h126.2c1.1,0,2,0.9,2,2v0.1
			C166.7,532.5,165.8,533.4,164.6,533.4z"/>
	</g>
	<g id="XMLID_101_" class="st5">
		<rect id="XMLID_23_" x="167.8" y="692.1" class="st1" width="74.2" height="74.2"/>
		<rect id="XMLID_24_" x="176.7" y="764.4" class="st1" width="56.2" height="127.3"/>
		<rect id="XMLID_25_" x="167.8" y="761.8" class="st6" width="74.2" height="4.5"/>
		<rect id="XMLID_28_" x="167.8" y="692.1" class="st6" width="74.2" height="4.5"/>
		<circle id="XMLID_26_" class="st0" cx="204.8" cy="729.2" r="22.6"/>
		<path id="XMLID_32_" class="st6" d="M204.9,730.1h-10.9c-0.7,0-1.3-0.6-1.3-1.3l0,0c0-0.7,0.6-1.3,1.3-1.3h10.9
			c0.7,0,1.3,0.6,1.3,1.3l0,0C206.1,729.5,205.6,730.1,204.9,730.1z"/>
		<path id="XMLID_41_" class="st6" d="M203.6,728.8v-17.4c0-0.7,0.6-1.3,1.3-1.3l0,0c0.7,0,1.3,0.6,1.3,1.3v17.4
			c0,0.7-0.6,1.3-1.3,1.3l0,0C204.1,730.1,203.6,729.5,203.6,728.8z"/>
		<rect id="XMLID_34_" x="176.7" y="803.3" class="st6" width="56.2" height="2.7"/>
		<rect id="XMLID_81_" x="227.9" y="764.4" class="st6" width="2.7" height="127.3"/>
		<rect id="XMLID_82_" x="178.9" y="764.4" class="st6" width="2.7" height="127.3"/>
		<path id="XMLID_43_" class="st0" d="M201.4,803.3h-12v-19.5c0-3.3,2.7-6,6-6h0c3.3,0,6,2.7,6,6V803.3z"/>
		<path id="XMLID_71_" class="st0" d="M219.1,803.3h-12v-19.5c0-3.3,2.7-6,6-6h0c3.3,0,6,2.7,6,6V803.3z"/>
		<rect id="XMLID_74_" x="176.7" y="848.3" class="st6" width="56.2" height="2.7"/>
		<path id="XMLID_73_" class="st0" d="M201.4,848.3h-12v-19.5c0-3.3,2.7-6,6-6h0c3.3,0,6,2.7,6,6V848.3z"/>
		<path id="XMLID_72_" class="st0" d="M219.1,848.3h-12v-19.5c0-3.3,2.7-6,6-6h0c3.3,0,6,2.7,6,6V848.3z"/>
		<path id="XMLID_79_" class="st0" d="M201.4,891.7h-12v-19.5c0-3.3,2.7-6,6-6h0c3.3,0,6,2.7,6,6V891.7z"/>
		<path id="XMLID_76_" class="st0" d="M219.1,891.7h-12v-19.5c0-3.3,2.7-6,6-6h0c3.3,0,6,2.7,6,6V891.7z"/>
		<rect id="XMLID_29_" x="176.7" y="675.4" class="st1" width="56.2" height="16.7"/>
		<rect id="XMLID_42_" x="186.5" y="643.3" class="st1" width="36.6" height="16.7"/>
		<polygon id="XMLID_31_" class="st6" points="176.7,675.4 186.5,660 223.2,660 233,675.4 		"/>
		<polygon id="XMLID_44_" class="st6" points="186.5,643.3 204.8,606.5 223.2,643.3 		"/>
		<path id="XMLID_40_" class="st0" d="M189.2,692.1h-6.4v-9.6c0-1.8,1.4-3.2,3.2-3.2h0c1.8,0,3.2,1.4,3.2,3.2V692.1z"/>
		<path id="XMLID_60_" class="st0" d="M201.9,692.1h-6.4v-9.6c0-1.8,1.4-3.2,3.2-3.2l0,0c1.8,0,3.2,1.4,3.2,3.2V692.1z"/>
		<path id="XMLID_86_" class="st0" d="M214.2,692.1h-6.4v-9.6c0-1.8,1.4-3.2,3.2-3.2l0,0c1.8,0,3.2,1.4,3.2,3.2V692.1z"/>
		<path id="XMLID_75_" class="st0" d="M226.9,692.1h-6.4v-9.6c0-1.8,1.4-3.2,3.2-3.2h0c1.8,0,3.2,1.4,3.2,3.2V692.1z"/>
		<path id="XMLID_98_" class="st0" d="M195.5,660h-6.4v-9.6c0-1.8,1.4-3.2,3.2-3.2h0c1.8,0,3.2,1.4,3.2,3.2V660z"/>
		<path id="XMLID_95_" class="st0" d="M207.9,660h-6.4v-9.6c0-1.8,1.4-3.2,3.2-3.2h0c1.8,0,3.2,1.4,3.2,3.2V660z"/>
		<path id="XMLID_92_" class="st0" d="M220.5,660h-6.4v-9.6c0-1.8,1.4-3.2,3.2-3.2l0,0c1.8,0,3.2,1.4,3.2,3.2V660z"/>
		<rect id="XMLID_57_" x="203.6" y="588" class="st6" width="2.3" height="26.6"/>
	</g>
	<g id="XMLID_146_" class="st5">
		<rect id="XMLID_33_" x="506.6" y="632.7" class="st6" width="91.1" height="202.9"/>
		<path id="XMLID_36_" class="st1" d="M601.6,653.6h-98.9c-1.6,0-2.9-1.3-2.9-2.9v-15.1c0-1.6,1.3-2.9,2.9-2.9h98.9
			c1.6,0,2.9,1.3,2.9,2.9v15.1C604.5,652.4,603.2,653.6,601.6,653.6z"/>
		<path id="XMLID_38_" class="st6" d="M519.9,573.9L505,632.7h16.1h16.1l-14.9-58.8C522,572.7,520.2,572.7,519.9,573.9z"/>
		<path id="XMLID_39_" class="st6" d="M580.5,573.9l-14.9,58.8h16.1h16.1l-14.9-58.8C582.5,572.7,580.8,572.7,580.5,573.9z"/>
		<path id="XMLID_45_" class="st1" d="M550.1,530.5l-25.9,102.2h28h28l-25.9-102.2C553.7,528.4,550.7,528.4,550.1,530.5z"/>
		<rect id="XMLID_37_" x="523" y="653.6" class="st1" width="2.5" height="181.9"/>
		<rect id="XMLID_85_" x="578.9" y="653.6" class="st1" width="2.5" height="181.9"/>
		<rect id="XMLID_46_" x="506.6" y="705.3" class="st1" width="91.1" height="5.7"/>
		<rect id="XMLID_97_" x="506.6" y="715.1" class="st1" width="91.1" height="2.8"/>
		<rect id="XMLID_100_" x="506.6" y="771.3" class="st1" width="91.1" height="5.7"/>
		<rect id="XMLID_99_" x="506.6" y="781.1" class="st1" width="91.1" height="2.8"/>
		<rect id="XMLID_96_" x="541.8" y="666.7" class="st0" width="20.8" height="20.8"/>
		<rect id="XMLID_122_" x="541.8" y="734.2" class="st0" width="20.8" height="20.8"/>
		<rect id="XMLID_124_" x="541.8" y="799.2" class="st0" width="20.8" height="20.8"/>
		<g id="XMLID_125_">
			<defs>
				<path id="XMLID_127_" d="M615.1,891.7H489.3v-47.3c0-4.9,4-8.8,8.8-8.8h108.2c4.9,0,8.8,4,8.8,8.8V891.7z"/>
			</defs>
			<clipPath id="XMLID_498_">
				<use xlink:href="#XMLID_127_"  style="overflow:visible;"/>
			</clipPath>
			<path id="XMLID_35_" class="st14" d="M615.1,891.7H489.3v-47.3c0-4.9,4-8.8,8.8-8.8h108.2c4.9,0,8.8,4,8.8,8.8V891.7z"/>
			<g id="XMLID_102_" class="st15">
				<g id="XMLID_253_">
					<path id="XMLID_254_" class="st1" d="M487.2,879.7l-2.8-2.6c6.4-7,30.2-29.9,68-30.1c0.1,0,0.3,0,0.4,0
						c36.9,0,60.6,21.9,67.1,28.6l-2.7,2.6c-6.2-6.4-28.9-27.4-64.3-27.4c-0.1,0-0.3,0-0.4,0C516.2,851,493.4,872.9,487.2,879.7z"/>
				</g>
			</g>
		</g>
	</g>
	<g id="XMLID_148_" class="st5">
		<rect id="XMLID_199_" x="850.6" y="632.5" class="st6" width="91.1" height="202.9"/>
		<path id="XMLID_196_" class="st1" d="M945.6,653.4h-98.9c-1.6,0-2.9-1.3-2.9-2.9v-15.1c0-1.6,1.3-2.9,2.9-2.9h98.9
			c1.6,0,2.9,1.3,2.9,2.9v15.1C948.5,652.1,947.2,653.4,945.6,653.4z"/>
		<path id="XMLID_195_" class="st6" d="M863.9,573.7L849,632.5h16.1h16.1l-14.9-58.8C865.9,572.5,864.2,572.5,863.9,573.7z"/>
		<path id="XMLID_194_" class="st6" d="M924.4,573.7l-14.9,58.8h16.1h16.1l-14.9-58.8C926.5,572.5,924.8,572.5,924.4,573.7z"/>
		<path id="XMLID_191_" class="st1" d="M894.1,530.3l-25.9,102.2h28h28l-25.9-102.2C897.7,528.2,894.7,528.2,894.1,530.3z"/>
		<rect id="XMLID_188_" x="866.9" y="653.4" class="st1" width="2.5" height="181.9"/>
		<rect id="XMLID_185_" x="922.9" y="653.4" class="st1" width="2.5" height="181.9"/>
		<rect id="XMLID_182_" x="850.6" y="705.1" class="st1" width="91.1" height="5.7"/>
		<rect id="XMLID_179_" x="850.6" y="714.9" class="st1" width="91.1" height="2.8"/>
		<rect id="XMLID_176_" x="850.6" y="771.1" class="st1" width="91.1" height="5.7"/>
		<rect id="XMLID_173_" x="850.6" y="780.8" class="st1" width="91.1" height="2.8"/>
		<rect id="XMLID_172_" x="885.8" y="666.5" class="st0" width="20.8" height="20.8"/>
		<rect id="XMLID_171_" x="885.8" y="734" class="st0" width="20.8" height="20.8"/>
		<rect id="XMLID_170_" x="885.8" y="799" class="st0" width="20.8" height="20.8"/>
		<g id="XMLID_150_">
			<defs>
				<path id="XMLID_153_" d="M959.1,891.5H833.2v-47.3c0-4.9,4-8.8,8.8-8.8h108.2c4.9,0,8.8,4,8.8,8.8V891.5z"/>
			</defs>
			<clipPath id="XMLID_499_">
				<use xlink:href="#XMLID_153_"  style="overflow:visible;"/>
			</clipPath>
			<path id="XMLID_169_" class="st16" d="M959.1,891.5H833.2v-47.3c0-4.9,4-8.8,8.8-8.8h108.2c4.9,0,8.8,4,8.8,8.8V891.5z"/>
			<g id="XMLID_154_" class="st17">
				<g id="XMLID_255_">
					<path id="XMLID_256_" class="st1" d="M831.2,879.4l-2.8-2.6c6.4-7,30.2-29.9,68-30.1c0.1,0,0.3,0,0.4,0
						c36.9,0,60.6,21.9,67.1,28.6l-2.7,2.6c-6.2-6.4-28.9-27.4-64.3-27.4c-0.1,0-0.3,0-0.4,0C860.2,850.8,837.3,872.7,831.2,879.4z"
						/>
				</g>
			</g>
		</g>
	</g>
	<rect id="XMLID_128_" x="597.8" y="660" class="st18" width="252.9" height="12.8"/>
	<path id="XMLID_142_" class="st9" d="M551.6,912.7h-87.2c-1.2,0-2.2-1-2.2-2.2l0,0c0-1.2,1-2.2,2.2-2.2h87.2c1.2,0,2.2,1,2.2,2.2
		l0,0C553.8,911.7,552.9,912.7,551.6,912.7z"/>
	<path id="XMLID_261_" class="st9" d="M418.1,928.5h-54.5c-1.2,0-2.2-1-2.2-2.2l0,0c0-1.2,1-2.2,2.2-2.2h54.5c1.2,0,2.2,1,2.2,2.2
		l0,0C420.3,927.5,419.4,928.5,418.1,928.5z"/>
	<path id="XMLID_262_" class="st9" d="M727.3,912.7h-93.6c-1.2,0-2.2-1-2.2-2.2l0,0c0-1.2,1-2.2,2.2-2.2h93.6c1.2,0,2.2,1,2.2,2.2
		l0,0C729.5,911.7,728.5,912.7,727.3,912.7z"/>
	<path id="XMLID_265_" class="st9" d="M930.4,963.1h-122c-1.2,0-2.2-1-2.2-2.2l0,0c0-1.2,1-2.2,2.2-2.2h122c1.2,0,2.2,1,2.2,2.2l0,0
		C932.6,962.1,931.6,963.1,930.4,963.1z"/>
	<path id="XMLID_264_" class="st9" d="M718.8,944.7h-23.1c-1.2,0-2.2-1-2.2-2.2l0,0c0-1.2,1-2.2,2.2-2.2h23.1c1.2,0,2.2,1,2.2,2.2
		l0,0C721,943.7,720,944.7,718.8,944.7z"/>
	<path id="XMLID_144_" class="st9" d="M539,944.7h-32.1c-1.2,0-2.2-1-2.2-2.2v0c0-1.2,1-2.2,2.2-2.2H539c1.2,0,2.2,1,2.2,2.2v0
		C541.2,943.7,540.2,944.7,539,944.7z"/>
	<path id="XMLID_145_" class="st9" d="M633.4,930.7h-66.5c-1.2,0-2.2-1-2.2-2.2v0c0-1.2,1-2.2,2.2-2.2h66.5c1.2,0,2.2,1,2.2,2.2v0
		C635.6,929.7,634.6,930.7,633.4,930.7z"/>
	<path id="XMLID_266_" class="st9" d="M831,932.9h-66.5c-1.2,0-2.2-1-2.2-2.2l0,0c0-1.2,1-2.2,2.2-2.2H831c1.2,0,2.2,1,2.2,2.2l0,0
		C833.2,931.9,832.2,932.9,831,932.9z"/>
	<path id="XMLID_279_" class="st9" d="M1067.7,932.9h-66.5c-1.2,0-2.2-1-2.2-2.2l0,0c0-1.2,1-2.2,2.2-2.2h66.5c1.2,0,2.2,1,2.2,2.2
		l0,0C1069.9,931.9,1068.9,932.9,1067.7,932.9z"/>
	<path id="XMLID_263_" class="st9" d="M653,963.1h-19.3c-1.2,0-2.2-1-2.2-2.2l0,0c0-1.2,1-2.2,2.2-2.2H653c1.2,0,2.2,1,2.2,2.2l0,0
		C655.2,962.1,654.3,963.1,653,963.1z"/>
	<path id="XMLID_270_" class="st9" d="M928.1,914.9h-19.3c-1.2,0-2.2-1-2.2-2.2l0,0c0-1.2,1-2.2,2.2-2.2h19.3c1.2,0,2.2,1,2.2,2.2
		l0,0C930.3,913.9,929.3,914.9,928.1,914.9z"/>
	<rect id="XMLID_147_" x="597.8" y="674.5" class="st18" width="252.9" height="4.7"/>
	<rect id="XMLID_149_" x="709.6" y="650.1" class="st9" width="29.1" height="29.1"/>
	<polygon id="XMLID_157_" class="st9" points="709.6,650.1 724.2,631.4 738.7,650.1 	"/>
	<g id="XMLID_49_" class="st5">
		<rect id="XMLID_248_" x="1077" y="771.3" class="st6" width="10" height="71.9"/>
	</g>
	<g id="XMLID_50_" class="st5">
		<rect id="XMLID_247_" x="1041.1" y="749.4" class="st6" width="10" height="96"/>
	</g>
	<g id="XMLID_52_" class="st5">
		<rect id="XMLID_246_" x="1005.6" y="725.8" class="st6" width="10" height="117.4"/>
	</g>
	<g id="XMLID_51_" class="st5">
		<rect id="XMLID_245_" x="969.8" y="688.8" class="st6" width="10" height="156.6"/>
	</g>
	<path id="XMLID_288_" class="st9" d="M414,338.7h-2c-2,0-3.6-1.8-3.2-3.8c0.3-1.6,0.4-3.3,0.4-4.9v0c0-16.7-13.5-30.2-30.2-30.2h0
		c-14.1,0-25.9,9.6-29.2,22.6c-0.4,1.5-1.7,2.5-3.2,2.5h-11c-12,0-21.7,9.7-21.7,21.7v0c0,12,9.7,21.7,21.7,21.7h31.9h30.7H414
		c8.2,0,14.8-6.6,14.8-14.8v0C428.8,345.4,422.2,338.7,414,338.7z"/>
	<path id="XMLID_371_" class="st9" d="M1084,434.7h-2c-2,0-3.6-1.8-3.2-3.8c0.3-1.6,0.4-3.3,0.4-4.9v0c0-16.7-13.5-30.2-30.2-30.2
		l0,0c-14.1,0-25.9,9.6-29.2,22.6c-0.4,1.5-1.7,2.5-3.2,2.5h-11c-12,0-21.7,9.7-21.7,21.7v0c0,12,9.7,21.7,21.7,21.7h31.9h30.7h15.8
		c8.2,0,14.8-6.6,14.8-14.8v0C1098.8,441.4,1092.2,434.7,1084,434.7z"/>
	<g id="XMLID_160_" class="st5">
		<defs>
			<polygon id="XMLID_218_" points="281.1,891.7 281.1,445.1 296.8,451.7 387.8,891.5 			"/>
		</defs>
		<clipPath id="XMLID_500_">
			<use xlink:href="#XMLID_218_"  style="overflow:visible;"/>
		</clipPath>
		<polygon id="XMLID_47_" class="st19" points="281.1,891.7 281.1,445.1 296.8,451.7 387.8,891.5 		"/>
		<rect id="XMLID_151_" x="272" y="483.5" class="st20" width="36.9" height="6.5"/>
		<rect id="XMLID_167_" x="274.5" y="516" class="st20" width="59.9" height="6.5"/>
		<rect id="XMLID_174_" x="274.5" y="547.4" class="st20" width="59.9" height="6.5"/>
		<rect id="XMLID_178_" x="274.5" y="579.1" class="st20" width="59.9" height="6.5"/>
		<rect id="XMLID_175_" x="274.5" y="610.5" class="st20" width="59.9" height="6.5"/>
		<rect id="XMLID_213_" x="274.5" y="643.8" class="st20" width="93.3" height="6.5"/>
		<rect id="XMLID_211_" x="274.5" y="675.2" class="st20" width="93.3" height="6.5"/>
		<rect id="XMLID_215_" x="281.1" y="769" class="st20" width="93.3" height="6.5"/>
		<rect id="XMLID_214_" x="281.1" y="800.4" class="st20" width="93.3" height="6.5"/>
		<rect id="XMLID_217_" x="281.1" y="832.1" class="st20" width="110.7" height="6.5"/>
		<rect id="XMLID_216_" x="281.1" y="863.5" class="st20" width="110.7" height="6.5"/>
		<rect id="XMLID_209_" x="274.5" y="706.9" class="st20" width="93.3" height="6.5"/>
		<rect id="XMLID_208_" x="274.5" y="738.3" class="st20" width="93.3" height="6.5"/>
	</g>
	<g id="XMLID_294_" class="st5">
		<rect id="XMLID_210_" x="25.5" y="873.5" class="st0" width="5.3" height="18.2"/>
		<path id="XMLID_297_" class="st1" d="M28.2,815.6L9.3,848.4c-6.3,11-2,25,9.4,30.5h0c6,2.9,13,2.9,19.1,0h0
			c11.4-5.5,15.7-19.5,9.4-30.5L28.2,815.6z"/>
		<g id="XMLID_295_">
			<path id="XMLID_300_" class="st0" d="M19.3,871.1c-0.3,0.9-1.3,1.2-2.1,0.8c-2.3-1.3-6.4-4.4-6.8-10.2c-0.4-6,4.2-14,6.1-17.2
				c0.5-0.7,1.4-0.9,2.1-0.4l0,0c0.7,0.5,0.9,1.3,0.4,2c-1.8,2.9-6,10.2-5.7,15.4c0.3,4.4,3.5,6.8,5.3,7.7
				C19.3,869.6,19.6,870.4,19.3,871.1L19.3,871.1z"/>
		</g>
		<circle id="XMLID_299_" class="st0" cx="21.3" cy="839" r="1.6"/>
	</g>
	<g id="XMLID_302_" class="st5">
		<rect id="XMLID_313_" x="88.2" y="873.5" class="st0" width="5.3" height="18.2"/>
		<path id="XMLID_310_" class="st1" d="M90.8,815.6l-18.9,32.8c-6.3,11-2,25,9.4,30.5h0c6,2.9,13,2.9,19.1,0h0
			c11.4-5.5,15.7-19.5,9.4-30.5L90.8,815.6z"/>
		<g id="XMLID_306_">
			<path id="XMLID_308_" class="st0" d="M82,871.1c-0.3,0.9-1.3,1.2-2.1,0.8c-2.3-1.3-6.4-4.4-6.8-10.2c-0.4-6,4.2-14,6.1-17.2
				c0.5-0.7,1.4-0.9,2.1-0.4l0,0c0.7,0.5,0.9,1.3,0.4,2c-1.8,2.9-6,10.2-5.7,15.4c0.3,4.4,3.5,6.8,5.3,7.7
				C81.9,869.6,82.2,870.4,82,871.1L82,871.1z"/>
		</g>
		<circle id="XMLID_304_" class="st0" cx="83.9" cy="839" r="1.6"/>
	</g>
	<g id="XMLID_314_" class="st5">
		<rect id="XMLID_321_" x="147.8" y="873.5" class="st0" width="5.3" height="18.2"/>
		<path id="XMLID_318_" class="st1" d="M150.4,815.6l-18.9,32.8c-6.3,11-2,25,9.4,30.5h0c6,2.9,13,2.9,19.1,0h0
			c11.4-5.5,15.7-19.5,9.4-30.5L150.4,815.6z"/>
		<g id="XMLID_316_">
			<path id="XMLID_317_" class="st0" d="M141.6,871.1c-0.3,0.9-1.3,1.2-2.1,0.8c-2.3-1.3-6.4-4.4-6.8-10.2c-0.4-6,4.2-14,6.1-17.2
				c0.5-0.7,1.4-0.9,2.1-0.4l0,0c0.7,0.5,0.9,1.3,0.4,2c-1.8,2.9-6,10.2-5.7,15.4c0.3,4.4,3.5,6.8,5.3,7.7
				C141.5,869.6,141.8,870.4,141.6,871.1L141.6,871.1z"/>
		</g>
		<circle id="XMLID_315_" class="st0" cx="143.5" cy="839" r="1.6"/>
	</g>
	<rect id="XMLID_301_" x="1155.7" y="753" class="st9" width="184.9" height="138.7"/>
	<rect id="XMLID_322_" x="1087" y="707.9" class="st9" width="68.7" height="183.8"/>
	<path id="XMLID_323_" class="st18" d="M1121.3,673.6L1121.3,673.6c-19,0-34.3,15.4-34.3,34.3v0h68.7v0
		C1155.7,689,1140.3,673.6,1121.3,673.6z"/>
	<g id="XMLID_325_" class="st5">
		<rect id="XMLID_326_" x="1118.8" y="659.3" class="st1" width="5" height="16.5"/>
	</g>
	<polygon id="XMLID_333_" class="st18" points="1155.7,753 1210.3,753 1183,720 	"/>
	<polygon id="XMLID_378_" class="st18" points="1286.2,753 1340.9,753 1313.6,720 	"/>
	<polygon id="XMLID_380_" class="st18" points="1222.6,753 1277.2,753 1249.9,720 	"/>
	<rect id="XMLID_383_" x="1087" y="788.4" class="st18" width="68.7" height="5.9"/>
	<rect id="XMLID_387_" x="1087" y="799.8" class="st18" width="68.7" height="5.9"/>
	<g id="XMLID_409_" class="st5">
		<rect id="XMLID_331_" x="1108.2" y="722.8" class="st0" width="26.2" height="48.5"/>
		<rect id="XMLID_384_" x="1108.1" y="745" class="st6" width="26.3" height="3.7"/>
	</g>
	<g id="XMLID_412_" class="st5">
		<rect id="XMLID_415_" x="1108.2" y="824.4" class="st0" width="26.2" height="48.5"/>
		<rect id="XMLID_413_" x="1108.1" y="846.7" class="st6" width="26.3" height="3.7"/>
	</g>
	<rect id="XMLID_459_" x="1339.9" y="707.8" class="st9" width="68.7" height="183.8"/>
	<path id="XMLID_456_" class="st18" d="M1374.2,673.5L1374.2,673.5c-19,0-34.3,15.4-34.3,34.3v0h68.7v0
		C1408.6,688.9,1393.2,673.5,1374.2,673.5z"/>
	<rect id="XMLID_453_" x="1339.9" y="788.3" class="st18" width="68.7" height="5.9"/>
	<rect id="XMLID_450_" x="1339.9" y="799.7" class="st18" width="68.7" height="5.9"/>
	<g id="XMLID_447_" class="st5">
		<rect id="XMLID_449_" x="1361.1" y="722.7" class="st0" width="26.2" height="48.5"/>
		<rect id="XMLID_448_" x="1361" y="744.9" class="st6" width="26.3" height="3.7"/>
	</g>
	<g id="XMLID_444_" class="st5">
		<rect id="XMLID_446_" x="1361.1" y="824.3" class="st0" width="26.2" height="48.5"/>
		<rect id="XMLID_445_" x="1361" y="846.6" class="st6" width="26.3" height="3.7"/>
	</g>
	<rect id="XMLID_411_" x="1155.7" y="820.1" class="st18" width="184.9" height="3.7"/>
	<rect id="XMLID_417_" x="1173.4" y="771.2" class="st21" width="19.3" height="34.4"/>
	<rect id="XMLID_418_" x="1170.5" y="803.8" class="st18" width="25" height="8.8"/>
	<rect id="XMLID_423_" x="1240.3" y="770.6" class="st21" width="19.3" height="34.4"/>
	<rect id="XMLID_420_" x="1237.4" y="803.3" class="st18" width="25" height="8.8"/>
	<rect id="XMLID_430_" x="1303.9" y="770.6" class="st21" width="19.3" height="34.4"/>
	<rect id="XMLID_424_" x="1301.1" y="803.3" class="st18" width="25" height="8.8"/>
	<rect id="XMLID_443_" x="1171.5" y="836.1" class="st21" width="19.3" height="34.4"/>
	<rect id="XMLID_440_" x="1168.7" y="868.8" class="st18" width="25" height="8.8"/>
	<rect id="XMLID_372_" x="1238.4" y="835.6" class="st21" width="19.3" height="34.4"/>
	<rect id="XMLID_364_" x="1235.5" y="868.2" class="st18" width="25" height="8.8"/>
	<rect id="XMLID_363_" x="1302.1" y="835.6" class="st21" width="19.3" height="34.4"/>
	<rect id="XMLID_344_" x="1299.2" y="868.2" class="st18" width="25" height="8.8"/>
	<g id="XMLID_369_" class="st5">
		<g id="XMLID_480_">
			<path id="XMLID_481_" class="st6" d="M798.2,439.9C798.2,439.9,798.2,439.9,798.2,439.9c-1.2,0-2.3-0.6-2.9-1.6
				c-3.4-5.5-8-8.1-10.5-9.3c-1-0.5-1.5-1.6-1.2-2.6l0,0c0.4-1.3,1.8-2,3-1.4c2.8,1.3,7.7,4.1,11.6,9.7c2.5-3.6,6.9-8.5,12.8-10
				c1.3-0.3,2.6,0.6,2.7,2l0,0c0.1,1.1-0.6,2-1.7,2.3c-5.4,1.4-9.4,6.9-11,9.3C800.4,439.3,799.3,439.9,798.2,439.9z"/>
		</g>
	</g>
	<g id="XMLID_375_" class="st5">
		<g id="XMLID_388_">
			<path id="XMLID_390_" class="st6" d="M848.9,468.5C848.9,468.5,848.9,468.5,848.9,468.5c-1.2,0-2.3-0.6-2.9-1.6
				c-3.4-5.5-8-8.1-10.5-9.3c-1-0.5-1.5-1.6-1.2-2.6l0,0c0.4-1.3,1.8-2,3-1.4c2.8,1.3,7.7,4.1,11.6,9.7c2.5-3.6,6.9-8.5,12.8-10
				c1.3-0.3,2.6,0.6,2.7,2l0,0c0.1,1.1-0.6,2-1.7,2.3c-5.4,1.4-9.4,6.9-11,9.3C851.1,467.9,850.1,468.5,848.9,468.5z"/>
		</g>
	</g>
	<g id="XMLID_469_" class="st5">
		<g id="XMLID_471_">
			<path id="XMLID_472_" class="st6" d="M887,423.3C887,423.3,887,423.3,887,423.3c-1.2,0-2.3-0.6-2.9-1.6c-3.4-5.5-8-8.1-10.5-9.3
				c-1-0.5-1.5-1.6-1.2-2.6l0,0c0.4-1.3,1.8-2,3-1.4c2.8,1.3,7.7,4.1,11.6,9.7c2.5-3.6,6.9-8.5,12.8-10c1.3-0.3,2.6,0.6,2.7,2l0,0
				c0.1,1.1-0.6,2-1.7,2.3c-5.4,1.4-9.4,6.9-11,9.3C889.2,422.7,888.2,423.3,887,423.3z"/>
		</g>
	</g>
	<g id="XMLID_487_" class="st5">
		<g id="XMLID_489_">
			<path id="XMLID_490_" class="st6" d="M935,394.6C935,394.6,935,394.6,935,394.6c-1.2,0-2.3-0.6-2.9-1.6c-3.4-5.5-8-8.1-10.5-9.3
				c-1-0.5-1.5-1.6-1.2-2.6l0,0c0.4-1.3,1.8-2,3-1.4c2.8,1.3,7.7,4.1,11.6,9.7c2.5-3.6,6.9-8.5,12.8-10c1.3-0.3,2.6,0.6,2.7,2l0,0
				c0.1,1.1-0.6,2-1.7,2.3c-5.4,1.4-9.4,6.9-11,9.3C937.2,394,936.2,394.6,935,394.6z"/>
		</g>
	</g>
	<g id="XMLID_492_" class="st5">
		<g id="XMLID_494_">
			<path id="XMLID_495_" class="st6" d="M933.7,455.3C933.7,455.3,933.7,455.3,933.7,455.3c-1.2,0-2.3-0.6-2.9-1.6
				c-3.4-5.5-8-8.1-10.5-9.3c-1-0.5-1.5-1.6-1.2-2.6l0,0c0.4-1.3,1.8-2,3-1.4c2.8,1.3,7.7,4.1,11.6,9.7c2.5-3.6,6.9-8.5,12.8-10
				c1.3-0.3,2.6,0.6,2.7,2l0,0c0.1,1.1-0.6,2-1.7,2.3c-5.4,1.4-9.4,6.9-11,9.3C935.9,454.7,934.8,455.3,933.7,455.3z"/>
		</g>
	</g>
	<g id="XMLID_474_" class="st5">
		<g id="XMLID_476_">
			<path id="XMLID_478_" class="st6" d="M839.6,403.4C839.6,403.4,839.6,403.4,839.6,403.4c-1.2,0-2.3-0.6-2.9-1.6
				c-3.4-5.5-8-8.1-10.5-9.3c-1-0.5-1.5-1.6-1.2-2.6h0c0.4-1.3,1.8-2,3-1.4c2.8,1.3,7.7,4.1,11.6,9.7c2.5-3.6,6.9-8.5,12.8-10
				c1.3-0.3,2.6,0.6,2.7,2l0,0c0.1,1.1-0.6,2-1.7,2.3c-5.4,1.4-9.4,6.9-11,9.3C841.8,402.8,840.8,403.4,839.6,403.4z"/>
		</g>
	</g>
	<g id="XMLID_482_" class="st5">
		<g id="XMLID_484_">
			<path id="XMLID_485_" class="st6" d="M878.7,370C878.7,370,878.7,370,878.7,370c-1.2,0-2.3-0.6-2.9-1.6c-3.4-5.5-8-8.1-10.5-9.3
				c-1-0.5-1.5-1.6-1.2-2.6l0,0c0.4-1.3,1.8-2,3-1.4c2.8,1.3,7.7,4.1,11.6,9.7c2.5-3.6,6.9-8.5,12.8-10c1.3-0.3,2.6,0.6,2.7,2l0,0
				c0.1,1.1-0.6,2-1.7,2.3c-5.4,1.4-9.4,6.9-11,9.3C881,369.4,879.9,370,878.7,370z"/>
		</g>
	</g>
</g>
</svg>
